# AST/ASF file generated using VICON BodyLanguage
# -----------------------------------------------
:version 1.10
:name VICON
:units
  mass 1.0
  length 0.45
  angle deg
:documentation
   .ast/.asf automatically generated from VICON data using
   VICON BodyBuilder and BodyLanguage model FoxedUp or BRILLIANT.MOD
:root
   order TX TY TZ RX RY RZ
   axis XYZ
   position 0 0 0  
   orientation 0 0 0 
:bonedata
  begin
     id 1 
     name lhipjoint
     direction 0.547975 -0.797114 0.253638 
     length 2.36201 
     axis 0 0 0  XYZ
  end
  begin
     id 2 
     name lfemur
     direction 0.34202 -0.939693 0  
     length 7.69075  
     axis 0 0 20  XYZ
    dof rx ry rz
    limits (-160.0 20.0)
           (-70.0 70.0)
           (-60.0 70.0)
  end
  begin
     id 3 
     name ltibia
     direction 0.34202 -0.939693 0   
     length 7.91399   
     axis 0 0 20   XYZ
    dof rx
    limits (-10.0 170.0)
  end
  begin
     id 4 
     name lfoot
     direction 0.0705293 -0.193778 0.978507   
     length 2.13618   
     axis -90 7.62852e-016 20   XYZ
    dof rx rz
    limits (-45.0 90.0)
           (-70.0 20.0)
  end
  begin
     id 5 
     name ltoes
     direction 1.53592e-011 -4.21925e-011 1   
     length 1.07518   
     axis -90 7.62852e-016 20   XYZ
    dof rx
    limits (-90.0 20.0)
  end
  begin
     id 6 
     name rhipjoint
     direction -0.57 -0.782963 0.249136   
     length 2.4047  
     axis 0 0 0  XYZ 
  end
  begin
     id 7 
     name rfemur
     direction -0.34202 -0.939693 0   
     length 7.51486   
     axis 0 0 -20   XYZ
    dof rx ry rz
    limits (-160.0 20.0)
           (-70.0 70.0)
           (-70.0 60.0)
  end
  begin
     id 8 
     name rtibia
     direction -0.34202 -0.939693 0   
     length 8.08317   
     axis 0 0 -20   XYZ
    dof rx
    limits (-10.0 170.0)
 end
 begin
     id 9 
     name rfoot
     direction -0.104954 -0.281256 0.953876   
     length 2.30343  
     axis -90 -7.62852e-016 -20   XYZ
    dof rx rz
    limits (-45.0 90.0)
           (-20.0 70.0)
  end
  begin
     id 10 
     name rtoes
     direction -1.53556e-011 -4.21922e-011 1   
     length 1.14803   
     axis -90 -7.62852e-016 -20   XYZ
    dof rx
    limits (-90.0 20.0)
  end
  begin
     id 11 
     name lowerback
     direction -0.0152855 0.99353 -0.11254   
     length 2.05311   
     axis 0 0 0   XYZ
    dof rx ry rz
    limits (-20.0 45.0)
           (-30.0 30.0)
           (-30.0 30.0)
  end
  begin
     id 12 
     name upperback
     direction -0.00157509 0.999443 -0.033332   
     length 2.06353   
     axis 0 0 0   XYZ
    dof rx ry rz
    limits (-20.0 45.0)
           (-30.0 30.0)
           (-30.0 30.0)
  end
  begin
     id 13 
     name thorax
     direction 0.00577788 0.999804 0.0189484   
     length 2.08472   
     axis 0 0 0   XYZ
    dof rx ry rz
    limits (-20.0 45.0)
           (-30.0 30.0)
           (-30.0 30.0)
  end
  begin
     id 14 
     name lowerneck
     direction -1.09301e-005 0.994719 0.10264   
     length 1.76249   
     axis 0 0 0   XYZ
    dof rx ry rz
    limits (-20.0 45.0)
           (-30.0 30.0)
           (-30.0 30.0)
  end
  begin
     id 15 
     name upperneck
     direction 0.0495018 0.988526 -0.142706   
     length 1.77897   
     axis 0 0 0   XYZ
    dof rx ry rz
    limits (-20.0 45.0)
           (-30.0 30.0)
           (-30.0 30.0)
  end
  begin
     id 16
     name head
     direction 0.0142736 0.998114 -0.0597101  
     length 1.78934  
     axis 0 0 0   XYZ
    dof rx ry rz
    limits (-20.0 45.0)
           (-30.0 30.0)
           (-30.0 30.0)
  end
  begin
     id 17 
     name lclavicle
     direction 0.918111 0.396107 -0.0130883  
     length 3.37276  
     axis 0 0 0   XYZ
    dof ry rz
    limits (-20.0 10.0)
           (0.0 20.0)
  end
  begin
     id 18 
     name lhumerus
     direction 1 -4.48975e-011 -3.26108e-027   
     length 5.34298   
     axis 180 -30 -90   XYZ
    dof rx ry rz
    limits (-60.0 90.0)
           (-90.0 90.0)
           (-90.0 90.0)
  end
  begin
     id 19
     name lradius
     direction 1 -4.48964e-011 -8.84413e-028   
     length 3.67262   
     axis 180 -30 -90   XYZ
    dof rx
    limits (-10.0 170.0)
  end
  begin
     id 20
     name lwrist
     direction 1 -4.48991e-011 -1.24264e-027   
     length 1.83631   
     axis -2.17013e-015 90 90   XYZ
    dof ry
    limits (-180.0 0.0)
 end
  begin
     id 21 
     name lhand
     direction 1 -4.48855e-011 -2.48528e-027   
     length 0.599298   
     axis 1.58582e-015 90 90   XYZ
    dof rx rz
    limits (-90.0 90.0)
           (-45.0 45.0)
  end
  begin
     id 22 
     name lfingers
     direction 1 -4.48811e-011 -4.97056e-027   
     length 0.48317   
     axis 3.17164e-015 90 90   XYZ
    dof rx
    limits (0.0 90.0)
  end
  begin
     id 23
     name lthumb
     direction 0.707107 -6.34882e-011 0.707107   
     length 0.693738   
     axis -90 45 2.85299e-015   XYZ
    dof rx rz
    limits (-45.0 45.0)
           (-45.0 45.0)
  end
  begin
     id 24 
     name rclavicle
     direction -0.920511 0.384752 -0.0680135   
     length 3.43787  
     axis 0 0 0   XYZ 
    dof ry rz
    limits (-10.0 20.0)
           (-20.0 0.0)
  end
  begin
     id 25 
     name rhumerus
     direction -0.999976 -0.00330524 0.00603274  
     length 5.5498   
     axis 180 30 90   XYZ
    dof rx ry rz
    limits (-90.0 60.0)
           (-90.0 90.0)
           (-90.0 90.0)
  end
  begin
     id 26 
     name rradius
     direction -1 -4.48967e-011 8.62438e-027   
     length 3.69401   
     axis 180 30 90   XYZ
    dof rx
    limits (-10.0 170.0)
  end
  begin
     id 27 
     name rwrist
     direction -1 -4.4897e-011 9.54866e-027   
     length 1.84701   
     axis -7.69462e-015 -90 -90   XYZ
    dof ry
    limits (-180.0 0.0)
  end
  begin
     id 28
     name rhand
     direction -1 -4.48982e-011 1.90973e-026   
     length 0.638113   
     axis -1.21857e-014 -90 -90   XYZ
    dof rx rz
    limits (-90.0 90.0)
           (-45.0 45.0)
  end
  begin
     id 29
     name rfingers
     direction -1 -4.48936e-011 3.81946e-026   
     length 0.514463   
     axis -2.43714e-014 -90 -90   XYZ
    dof rx
    limits (0.0 90.0)
  end
  begin
     id 30
     name rthumb
     direction -0.707107 -6.34942e-011 0.707107   
     length 0.738669   
     axis -90 -45 -2.85299e-015   XYZ
    dof rx rz
    limits (-45.0 45.0)
           (-45.0 45.0)
  end
:hierarchy
  begin
    root lhipjoint rhipjoint lowerback
    lhipjoint lfemur
    lfemur ltibia
    ltibia lfoot
    lfoot ltoes
    rhipjoint rfemur
    rfemur rtibia
    rtibia rfoot
    rfoot rtoes
    lowerback upperback
    upperback thorax
    thorax lowerneck lclavicle rclavicle
    lowerneck upperneck
    upperneck head
    lclavicle lhumerus
    lhumerus lradius
    lradius lwrist
    lwrist lhand lthumb
    lhand lfingers
    rclavicle rhumerus
    rhumerus rradius
    rradius rwrist
    rwrist rhand rthumb
    rhand rfingers
  end

#!OML:ASF F:\twosubjects\two\Thursday\Session 1\Rory.ASF
:FULLY-SPECIFIED
:DEGREES
287
root 9.73698 12.5726 12.0919 -154.128 -41.8182 167.835
lowerback 31.5286 -1.17051 -2.54551
upperback 7.96205 -4.18424 -4.43279
thorax -8.40836 -2.50728 -1.88904
lowerneck -5.45777 -16.3139 -9.96052
upperneck -8.87497 -22.1914 31.6013
head 3.43522 -11.7514 9.49536
rclavicle 3.49861e-014 -5.20816e-014
rhumerus 18.9741 -15.8013 -61.1105
rradius 129.682
rwrist -0.188689
rhand 13.9663 5.37546
rfingers 7.12502
rthumb 38.8777 -20.1795
lclavicle 3.49861e-014 -5.20816e-014
lhumerus 15.2832 -69.9875 72.5378
lradius 97.6161
lwrist -3.37315
lhand -29.68 80.3014
lfingers 7.12502
lthumb -3.00841 -110.26
rfemur -6.15801 5.792 -1.73648
rtibia 81.2021
rfoot -18.2026 -9.47799
rtoes -33.3393
lfemur -92.5165 12.9535 -21.0702
ltibia 86.4296
lfoot -2.2279 -25.0264
ltoes 18.5415
288
root 9.72439 12.6248 12.0851 -153.703 -41.8672 167.344
lowerback 31.5884 -1.28843 -2.73865
upperback 7.9126 -4.39746 -4.45526
thorax -8.4879 -2.60107 -1.71989
lowerneck -5.51628 -16.2977 -10.2248
upperneck -8.64429 -22.1781 31.4755
head 3.52177 -11.702 9.48265
rclavicle -8.34896e-014 1.59028e-015
rhumerus 18.944 -15.2836 -61.0973
rradius 129.711
rwrist 0.519138
rhand 13.2357 5.27997
rfingers 7.12502
rthumb 38.1884 -20.4678
lclavicle -8.34896e-014 1.59028e-015
lhumerus 14.7231 -69.8081 73.0601
lradius 97.2955
lwrist -3.46223
lhand -29.6487 80.3025
lfingers 7.12502
lthumb -2.9782 -110.261
rfemur -6.2132 4.79537 -2.59327
rtibia 80.963
rfoot -18.0869 -8.95834
rtoes -33.577
lfemur -92.175 12.5249 -21.3635
ltibia 86.1579
lfoot -2.46381 -24.8632
ltoes 18.2446
289
root 9.72485 12.6395 12.0739 -153.609 -42.0191 167.552
lowerback 31.3963 -1.35689 -2.4991
upperback 7.89179 -4.3836 -4.44862
thorax -8.43612 -2.59274 -1.86207
lowerneck -5.50966 -16.2967 -10.1437
upperneck -8.54916 -22.1815 31.3562
head 3.51922 -11.6919 9.43233
rclavicle 4.77083e-014 -6.20208e-014
rhumerus 18.6358 -15.0991 -61.1101
rradius 129.831
rwrist 0.928344
rhand 13.0656 5.15368
rfingers 7.12502
rthumb 38.0278 -20.638
lclavicle 4.77083e-014 -6.20208e-014
lhumerus 14.6637 -69.9384 72.9657
lradius 97.1747
lwrist -3.52467
lhand -29.7145 80.3538
lfingers 7.12502
lthumb -3.04173 -110.312
rfemur -6.39828 4.63091 -2.26708
rtibia 80.8784
rfoot -18.0483 -9.1511
rtoes -33.8535
lfemur -92.3183 12.494 -21.1848
ltibia 85.9905
lfoot -2.61088 -24.9281
ltoes 18.3375
290
root 9.73726 12.6291 12.0636 -153.476 -42.0446 167.585
lowerback 31.2884 -1.28295 -2.40725
upperback 7.90514 -4.26961 -4.56662
thorax -8.38267 -2.5425 -2.09513
lowerneck -5.40049 -16.3155 -9.74177
upperneck -8.68477 -22.1829 31.2187
head 3.38923 -11.722 9.35023
rclavicle -5.60573e-014 -3.18055e-014
rhumerus 18.2138 -15.0898 -61.2348
rradius 129.903
rwrist 1.24764
rhand 13.1832 5.16095
rfingers 7.12502
rthumb 38.1388 -20.6004
lclavicle -5.60573e-014 -3.18055e-014
lhumerus 15.1095 -70.3384 72.3206
lradius 97.2395
lwrist -3.53682
lhand -29.8871 80.088
lfingers 7.12502
lthumb -3.20846 -110.044
rfemur -6.47565 5.16396 -1.68142
rtibia 80.9085
rfoot -18.1867 -9.83929
rtoes -33.734
lfemur -92.5275 12.5747 -21.1493
ltibia 85.8496
lfoot -2.59138 -24.9925
ltoes 18.8532
291
root 9.74973 12.6339 12.0554 -153.102 -41.8667 166.918
lowerback 31.5241 -1.1157 -2.78253
upperback 7.97032 -4.2499 -4.83133
thorax -8.41698 -2.54235 -2.17908
lowerneck -5.38758 -16.3464 -9.3394
upperneck -8.87706 -22.1948 31.121
head 3.26789 -11.7596 9.27177
rclavicle -7.55382e-015 9.93923e-015
rhumerus 17.9235 -15.2663 -61.3004
rradius 129.952
rwrist 1.35038
rhand 13.1865 5.17509
rfingers 7.12502
rthumb 38.142 -20.5854
lclavicle -7.55382e-015 9.93923e-015
lhumerus 15.7001 -70.7245 71.468
lradius 97.3386
lwrist -3.53407
lhand -29.9435 79.9398
lfingers 7.12502
lthumb -3.26292 -109.895
rfemur -6.33825 5.52991 -1.89926
rtibia 80.9373
rfoot -18.3324 -10.2657
rtoes -33.3674
lfemur -92.32 12.5074 -21.6776
ltibia 85.6452
lfoot -2.24064 -24.9362
ltoes 18.8669
292
root 9.7463 12.6945 12.0431 -153.019 -41.9415 166.706
lowerback 31.6908 -1.13907 -2.72789
upperback 8.06987 -4.30239 -4.93167
thorax -8.39497 -2.57722 -2.30079
lowerneck -5.29456 -16.3621 -9.25798
upperneck -9.18063 -22.1708 31.24
head 3.16889 -11.7947 9.31998
rclavicle -3.02153e-014 5.1684e-014
rhumerus 17.8186 -15.3511 -61.2586
rradius 130.053
rwrist 1.43199
rhand 13.2523 5.08254
rfingers 7.12502
rthumb 38.2041 -20.6609
lclavicle -3.02153e-014 5.1684e-014
lhumerus 16.0239 -70.8443 70.9405
lradius 97.3805
lwrist -3.60026
lhand -29.9137 79.8513
lfingers 7.12502
lthumb -3.23415 -109.807
rfemur -6.22722 5.22653 -2.09361
rtibia 80.8266
rfoot -18.5036 -9.71554
rtoes -31.5806
lfemur -91.6406 11.8866 -21.296
ltibia 85.2709
lfoot -2.25948 -24.433
ltoes 18.3385
293
root 9.74284 12.7298 12.0341 -153.244 -42.2439 167.214
lowerback 31.5253 -1.33727 -2.12312
upperback 8.1844 -4.34758 -4.90632
thorax -8.22435 -2.60803 -2.61112
lowerneck -5.36807 -16.4421 -9.32649
upperneck -9.20194 -22.2969 31.4491
head 3.24215 -11.8605 9.36192
rclavicle 5.40694e-014 2.94201e-014
rhumerus 17.6214 -15.2259 -61.3618
rradius 130.316
rwrist 1.71773
rhand 13.3773 5.30716
rfingers 7.12502
rthumb 38.3221 -20.4037
lclavicle 5.40694e-014 2.94201e-014
lhumerus 16.1809 -70.8024 70.6117
lradius 97.3262
lwrist -3.74467
lhand -30.3191 79.8281
lfingers 7.12502
lthumb -3.62566 -109.777
rfemur -6.40147 4.61321 -1.84009
rtibia 80.8226
rfoot -18.8757 -8.76667
rtoes -29.867
lfemur -91.5041 11.647 -20.6059
ltibia 85.0361
lfoot -2.28427 -24.2698
ltoes 17.895
